Simulation
nRows=24
nColumns=15
endheader
time  TH_x TH_y TH_z SC_y  SC_z  SC_x  AC_y  AC_z  AC_x  GH_y  GH_z  GH_yy  EL_x  PS_y
1.5  0.000000  0.000000  0.000000  -39.79566824087192  10.9536332918976  6.488323753298951  53.877655742892536  13.931133349139126  14.473077292250037  47.01412633819094  63.009513044547674  -59.5033993613762  9.728766449251184  120.000000
1.51  0.000000  0.000000  0.000000  -39.882355985585264  10.993735057905369  6.62882160194094  53.904547857144294  13.963021263550702  14.493928640112864  47.05848960962821  62.93561286095539  -59.71038140363932  10.08168427619233  120.000000
1.52  0.000000  0.000000  0.000000  -39.97459181927101  11.0361152359834  6.785283651918702  53.92664529291778  13.996982623189735  14.509873315006919  47.10982538387904  62.84424655188393  -59.925434436235186  10.47763455597589  120.000000
1.53  0.000000  0.000000  0.000000  -40.07214457614259  11.080536247366314  6.957414567608504  53.94313625345679  14.033269303470421  14.520583377341913  47.16851572423032  62.73410584466325  -60.1460390095222  10.91839644016673  120.000000
1.54  0.000000  0.000000  0.000000  -40.174795575849345  11.126726961851066  7.144825857663578  53.953298602621054  14.072102692549317  14.525791447941167  47.2348547942834  62.603980965844094  -60.369610780762144  11.405698493507565  120.000000
1.55  0.000000  0.000000  0.000000  -40.2823405247584  11.174377307032284  7.347026046366381  53.95652269060037  14.11366344259581  14.52529503362594  47.309024372525556  62.45279433316758  -60.593540402419094  11.941187115115943  120.000000
1.56  0.000000  0.000000  0.000000  -40.39459039458213  11.22313353439546  7.563412895986599  53.95233480845233  14.158082137405476  14.518959621816995  47.39106782957531  62.279631750634216  -60.81523525234135  12.526389778362505  120.000000
1.57  0.000000  0.000000  0.000000  -40.51136980721014  11.272594335343122  7.793264989904539  53.940418192369805  14.205429775681056  14.506719213643384  47.4808641978019  62.08377489766131  -61.03215930465625  13.162673733996803  120.000000
1.58  0.000000  0.000000  0.000000  -40.632514447617744  11.32230885075335  8.035736988402135  53.920630376531705  14.255709542218186  14.488575747199869  47.57810422745045  61.86472586808628  -61.24187217453154  13.85120636659567  120.000000
1.59  0.000000  0.000000  0.000000  -40.75786571688914  11.371779280656646  8.289855828098492  53.893012295095005  14.30885039968194  14.464593888819008  47.6822708439379  61.62222494833321  -61.442060708885364  14.59292392753977  120.000000
1.6  0.000000  0.000000  0.000000  -40.887264183612146  11.420466985828723  8.554521475753376  53.85778692928611  14.364704508088861  14.434893057257476  47.79262605540228  61.35625221750478  -61.63056366507926  15.388518328588427  120.000000
1.61  0.000000  0.000000  0.000000  -41.020539592860665  11.467801959876478  8.828510010000027  53.81534105492744  14.423044582864849  14.399641389660149  47.908208310432556  61.06701562050354  -61.805384914631915  16.238443058862828  120.000000
1.62  0.000000  0.000000  0.000000  -41.15749842758242  11.51320512929546  9.110481029324282  53.76620167306468  14.483570335474711  14.359042338630243  48.027836972728686  60.754924384121395  -61.96470048958572  17.142930749852383  120.000000
1.6300000000000001  0.000000  0.000000  0.000000  -41.29790540799644  11.556107758506393  9.398983261473427  53.7110104920029  14.545925826860653  14.313305490862529  48.1501139894095  60.42056171503585  -62.10685830184676  18.10202172490783  120.000000
1.6400000000000001  0.000000  0.000000  0.000000  -41.4414550583095  11.595951797130336  9.692466764866241  53.65046686532707  14.609689818608565  14.262670734386091  48.273438167354875  60.06464574329563  -62.2303896038975  19.115572890967538  120.000000
1.6500000000000001  0.000000  0.000000  0.000000  -41.58777216012743  11.63221956326231  9.989299017788264  53.5852808217451  14.674383293716607  14.2074124268454  48.3960469336021  59.68798485204582  -62.33400148070867  20.183277744017698  120.000000
1.6600000000000001  0.000000  0.000000  0.000000  -41.7365042330209  11.664448810628073  10.287764880612889  53.51620634393851  14.73950967624082  14.147772839110322  48.51605156230491  59.291478536157065  -62.41658344153992  21.304728612918037  120.000000
1.67  0.000000  0.000000  0.000000  -41.887347246982436  11.692213069721276  10.586067384417966  53.44403700255805  14.80458961240058  14.083941288525953  48.631467160531926  58.87611991863019  -62.47722730334296  22.479412261363272  120.000000
1.68  0.000000  0.000000  0.000000  -42.03991664275977  11.715146382983004  10.882337839247878  53.36952880344055  14.869191207877366  14.016074123319054  48.740232127660626  58.44293845892099  -62.51521257852493  23.706698800022068  120.000000
1.69  0.000000  0.000000  0.000000  -42.1936732106173  11.732916666925043  11.174652460464115  53.293350652091135  14.932937061190628  13.944313721401338  48.84024429548274  57.99297391068374  -62.530008252534195  24.985816658625545  120.000000
1.7  0.000000  0.000000  0.000000  -42.34793486895258  11.745187213277463  11.461056326399833  53.21607572128629  14.99549107250647  13.868812371122036  48.9294208061845  57.52727835429067  -62.521308491165755  26.315814494719977  120.000000
1.71  0.000000  0.000000  0.000000  -42.50190670109818  11.751620649934477  11.739596654378683  53.138219385557306  15.056614336779921  13.789660103630567  49.00578401772794  57.046915965765514  -62.489008227233704  27.695600216364685  120.000000
1.72  0.000000  0.000000  0.000000  -42.65471291744648  11.751860131292748  12.008373170019464  53.06028860501967  15.116232564390879  13.706785435793767  49.06754455755798  56.55297539567343  -62.43316846791278  29.123940470158008  120.000000
1.73  0.000000  0.000000  0.000000  -42.805409766940876  11.745524288859487  12.265574869558941  52.98273888378095  15.174349163964791  13.62004912197503  49.1131658031729  56.046571780847124  -62.3541111827239  30.599338933870076  120.000000
